<svg width="70" height="31" viewBox="0 0 70 31" fill="none" xmlns="http://www.w3.org/2000/svg">
<path d="M26.0678 8.27319C26.035 7.9842 25.8709 7.72768 25.6214 7.57182L14.0269 0.434764L13.5476 0.142528C13.2358 -0.0522961 12.8353 -0.045802 12.5267 0.152269L12.0672 0.441258L0.462859 7.57182C0.18383 7.74067 0.0131307 8.04914 0.0131307 8.3771C0.0131307 8.40957 0.00328269 8.51997 0 8.69531V17.6929C0.00328269 22.3298 3.82105 26.1029 8.49231 26.1061H11.7389C13.61 26.6743 15.2153 28.0381 16.1278 29.7396L16.1377 29.7591L16.141 29.7623L16.1836 29.824L16.1968 29.8532C16.2001 29.8565 16.2001 29.863 16.2066 29.8662C16.3117 30.0221 16.4495 30.1584 16.6268 30.2591C16.8074 30.3695 17.0339 30.4344 17.2669 30.4344C17.6149 30.4344 17.9432 30.2916 18.1664 30.0708C18.3962 29.8435 18.5406 29.5318 18.5439 29.2006V29.1778L18.557 26.0444C20.6153 25.8139 22.4536 24.8462 23.7929 23.4273C25.211 21.9271 26.0875 19.9074 26.0875 17.6962V8.69531C26.0941 8.51997 26.0744 8.38034 26.0678 8.27319ZM24.1803 17.6897C24.1803 19.4041 23.504 20.9562 22.4043 22.1219C21.3046 23.2909 19.7815 24.0572 18.081 24.1806C18.0482 24.1838 18.0154 24.1838 17.9793 24.1936C17.976 24.1968 17.9694 24.1968 17.9596 24.1968H17.9563C17.6543 24.2455 17.372 24.3819 17.152 24.5767C16.8993 24.804 16.7253 25.106 16.6629 25.4437C16.6531 25.4956 16.6498 25.5573 16.6498 25.6125L16.6465 27.1452C15.4779 25.7911 13.9284 24.7553 12.1558 24.2423C12.0704 24.2131 11.9785 24.2033 11.8866 24.2033H8.49231C6.68683 24.2033 5.04549 23.4695 3.84731 22.2843C2.65569 21.0991 1.91381 19.4756 1.91381 17.6832V8.91286L13.0454 2.06804L24.1803 8.91936V17.6897Z" fill="#EB5B4B"/>
<path d="M9.59518 9.69727H7.34326V19.4125H9.59518V13.9185H16.4954V19.4125H18.7539V9.69727H16.4954V12.2332H9.59518V9.69727Z" fill="#EB5B4B"/>
<path d="M39.6317 14.5434V11.0301H36.4541V14.5434H34.0249V5.56523L36.4541 5.4873V9.14351H39.6317V5.56523H42.0609V14.5434H39.6317Z" fill="white"/>
<path d="M47.0145 14.6897C46.3186 14.6897 45.6981 14.5663 45.1499 14.3196C44.6017 14.0728 44.175 13.6994 43.8631 13.1961C43.5513 12.6928 43.397 12.0628 43.397 11.3063C43.397 10.5854 43.5611 9.97173 43.8894 9.47168C44.2176 8.96838 44.6641 8.58523 45.2189 8.31572C45.7769 8.04622 46.3908 7.91309 47.0703 7.91309C47.7826 7.91309 48.4129 8.04297 48.9644 8.30273C49.5159 8.5625 49.9492 8.9489 50.2643 9.45869C50.5795 9.96848 50.7403 10.6082 50.7403 11.3745C50.7403 12.0856 50.5729 12.6895 50.2381 13.1831C49.9033 13.6766 49.4568 14.0501 48.8955 14.3066C48.3341 14.5631 47.7071 14.6897 47.0145 14.6897ZM47.0408 12.735C47.3001 12.735 47.5167 12.6863 47.6874 12.5824C47.8614 12.4817 47.9927 12.3291 48.0879 12.1278C48.1831 11.9265 48.2258 11.6732 48.2258 11.3745C48.2258 11.0822 48.1798 10.8257 48.0912 10.6017C48.0026 10.3776 47.8746 10.199 47.7104 10.0659C47.5463 9.93276 47.3395 9.86782 47.09 9.86782C46.8405 9.86782 46.6271 9.92627 46.4499 10.0399C46.2726 10.1536 46.1347 10.3192 46.0428 10.5367C45.9509 10.7543 45.9049 11.0108 45.9049 11.3095C45.9049 11.592 45.9509 11.8388 46.0395 12.0564C46.1282 12.2707 46.2562 12.4395 46.4269 12.5564C46.5943 12.6765 46.8011 12.735 47.0408 12.735Z" fill="white"/>
<path d="M56.4914 10.2922H54.5678V11.8768C54.5678 12.1398 54.6367 12.3508 54.7746 12.5034C54.9124 12.6561 55.0963 12.734 55.3293 12.734C55.4639 12.734 55.6149 12.7145 55.7823 12.6755C55.953 12.6366 56.1106 12.5716 56.2649 12.484L56.9575 14.1205C56.8492 14.2082 56.6982 14.2958 56.498 14.3835C56.2977 14.4712 56.0811 14.5458 55.8447 14.601C55.6084 14.6562 55.3851 14.6887 55.1718 14.6887C54.6564 14.6887 54.1673 14.5946 53.7044 14.403C53.2415 14.2146 52.864 13.9322 52.5752 13.5522C52.2863 13.1756 52.1418 12.7015 52.1418 12.1398V10.2922H51.1406V8.40564H52.1418V6.67495L54.571 6.34375V8.40239H56.2682L56.4914 10.2922Z" fill="white"/>
<path d="M60.0042 11.9421C60.0666 12.1174 60.1585 12.2733 60.2833 12.4031C60.408 12.5363 60.5689 12.6369 60.7625 12.7084C60.9595 12.7766 61.1926 12.8155 61.4716 12.8155C61.8622 12.8155 62.2069 12.7668 62.5057 12.6694C62.8044 12.572 63.0506 12.4746 63.2475 12.3804L63.9271 14.004C63.7564 14.1273 63.5298 14.241 63.2475 14.3481C62.9619 14.4553 62.6468 14.5365 62.2988 14.5982C61.9509 14.6599 61.5963 14.6923 61.232 14.6923C60.4934 14.6923 59.8303 14.5657 59.2427 14.3092C58.6551 14.0527 58.1955 13.676 57.8606 13.1792C57.5258 12.6824 57.3584 12.0719 57.3584 11.3511C57.3584 10.6302 57.5127 10.0133 57.818 9.50352C58.1265 8.99373 58.5434 8.60083 59.072 8.32808C59.6005 8.05532 60.1914 7.91895 60.8413 7.91895C61.534 7.91895 62.1117 8.07156 62.5713 8.37354C63.0276 8.67876 63.3723 9.0814 63.5988 9.58794C63.8253 10.0945 63.9402 10.6465 63.9402 11.2439V11.9453H60.0042V11.9421ZM61.6193 10.7536C61.6193 10.6302 61.5898 10.4971 61.5307 10.3575C61.4749 10.2179 61.383 10.0945 61.2648 9.99382C61.1433 9.89316 60.9825 9.84121 60.7757 9.84121C60.6345 9.84121 60.4966 9.88342 60.3621 9.96785C60.2275 10.0523 60.1224 10.1627 60.0469 10.299C59.9714 10.4354 59.932 10.588 59.932 10.7536H61.6193Z" fill="white"/>
<path d="M65.0103 14.543V5.36682L67.4394 5.2207V14.543H65.0103Z" fill="white"/>
<path d="M39.2969 25.1061L38.2826 21.7908L37.2813 25.1061H35.0655L33.0894 19.099L35.3314 18.4658L36.267 22.3363L37.1599 18.7061H39.4414L40.4032 22.3363L41.2435 18.7061H43.6596L41.5127 25.1093H39.2969V25.1061Z" fill="white"/>
<path d="M44.769 22.9825C44.9463 23.0637 45.1498 23.1351 45.3763 23.2001C45.6028 23.2683 45.8293 23.3202 46.0493 23.3657C46.2725 23.4111 46.4596 23.4339 46.6106 23.4339C46.7189 23.4339 46.8141 23.4209 46.8995 23.3949C46.9815 23.3689 47.0505 23.3332 47.0997 23.2877C47.1489 23.2423 47.1719 23.1936 47.1719 23.1416C47.1719 23.1059 47.1457 23.0669 47.0931 23.015C47.0406 22.9663 46.9651 22.9176 46.8666 22.8689C46.7682 22.8202 46.6565 22.778 46.5318 22.7422C46.1773 22.6188 45.8195 22.4662 45.4649 22.2876C45.1104 22.1058 44.8117 21.8818 44.5786 21.6058C44.3423 21.333 44.2241 21.0051 44.2241 20.6154C44.2241 19.9465 44.4768 19.4237 44.9857 19.0438C45.4912 18.6639 46.197 18.4756 47.0964 18.4756C47.2737 18.4756 47.5068 18.4918 47.7989 18.5275C48.0878 18.5633 48.3898 18.6282 48.6984 18.7256C49.007 18.823 49.2893 18.9691 49.5387 19.1607L48.8592 20.6803C48.5999 20.5667 48.3274 20.4725 48.0451 20.4043C47.7595 20.3329 47.5035 20.2972 47.2704 20.2972C47.0734 20.2972 46.9159 20.3232 46.7911 20.3751C46.6664 20.4271 46.604 20.4985 46.604 20.5862C46.604 20.6381 46.6697 20.6998 46.7977 20.7713C46.9257 20.8427 47.0899 20.9141 47.2835 20.9823C47.6381 21.1057 47.9926 21.2583 48.3373 21.4369C48.6852 21.6187 48.9741 21.8428 49.2039 22.1123C49.4337 22.3818 49.5519 22.713 49.5519 23.1092C49.5519 23.7781 49.3287 24.3008 48.8789 24.6807C48.4292 25.0606 47.7562 25.249 46.8568 25.249C46.6795 25.249 46.4169 25.2262 46.0755 25.1808C45.7341 25.1353 45.3796 25.0606 45.0152 24.9502C44.6508 24.8398 44.3423 24.6872 44.0928 24.4957L44.769 22.9825Z" fill="white"/>
<path d="M50.7633 17.4498C50.504 17.1933 50.376 16.8913 50.376 16.5374C50.376 16.177 50.504 15.8652 50.7633 15.6055C51.0227 15.3457 51.328 15.2158 51.6825 15.2158C52.0469 15.2158 52.362 15.3457 52.6246 15.6055C52.8872 15.8652 53.0185 16.177 53.0185 16.5374C53.0185 16.8881 52.8872 17.1933 52.6246 17.4498C52.362 17.7063 52.0469 17.833 51.6825 17.833C51.328 17.833 51.0227 17.7031 50.7633 17.4498ZM50.4843 25.1064V18.7032H52.9135V25.1064H50.4843Z" fill="white"/>
<path d="M56.4915 22.5046C56.5539 22.6799 56.6458 22.8358 56.7706 22.9656C56.8953 23.0988 57.0562 23.1994 57.2498 23.2709C57.4468 23.3391 57.6799 23.378 57.9589 23.378C58.3495 23.378 58.6942 23.3293 58.993 23.2319C59.2917 23.1345 59.5379 23.0371 59.7348 22.9429L60.4144 24.5665C60.2437 24.6898 60.0172 24.8035 59.7348 24.9106C59.4492 25.0178 59.1341 25.099 58.7861 25.1607C58.4382 25.2224 58.0837 25.2548 57.7193 25.2548C56.9807 25.2548 56.3176 25.1282 55.73 24.8717C55.1424 24.6152 54.6828 24.2385 54.348 23.7417C54.0131 23.2449 53.8457 22.6344 53.8457 21.9136C53.8457 21.1927 54 20.5758 54.3053 20.066C54.6138 19.5562 55.0308 19.1633 55.5593 18.8906C56.0878 18.6178 56.6787 18.4814 57.3286 18.4814C58.0213 18.4814 58.599 18.6308 59.0586 18.936C59.5149 19.238 59.8596 19.6439 60.0861 20.1504C60.3126 20.657 60.4275 21.209 60.4275 21.8064V22.5078H56.4915V22.5046ZM58.1066 21.3161C58.1066 21.1927 58.0771 21.0596 58.018 20.92C57.9622 20.7804 57.8703 20.657 57.7521 20.5563C57.6306 20.4557 57.4698 20.407 57.263 20.407C57.1218 20.407 56.9839 20.4492 56.8494 20.5336C56.7148 20.618 56.6097 20.7284 56.5342 20.8648C56.4587 21.0012 56.4193 21.1538 56.4193 21.3194H58.1066V21.3161Z" fill="white"/>
<path d="M66.7171 24.6057C66.4676 24.8006 66.205 24.9434 65.9292 25.0344C65.6535 25.1253 65.3909 25.1837 65.1414 25.2129C64.8919 25.2389 64.6785 25.2519 64.5013 25.2519C63.8053 25.2519 63.1915 25.122 62.6597 24.8623C62.1246 24.6025 61.7077 24.2226 61.4123 23.7258C61.1168 23.229 60.9658 22.6218 60.9658 21.9107C60.9658 21.1898 61.1135 20.5729 61.4123 20.0631C61.711 19.5533 62.1279 19.1604 62.6597 18.8876C63.1915 18.6149 63.8053 18.4785 64.5013 18.4785C64.6785 18.4785 64.8919 18.4915 65.1414 18.5175C65.3909 18.5435 65.6535 18.6052 65.9292 18.6961C66.205 18.7902 66.4676 18.9331 66.7171 19.1247L66.0376 20.7742C65.7782 20.6411 65.5583 20.5534 65.3712 20.5047C65.1841 20.456 64.974 20.4333 64.7442 20.4333C64.5308 20.4333 64.3273 20.4917 64.1303 20.6118C63.9334 20.732 63.7758 20.9008 63.6543 21.1216C63.5329 21.3424 63.4738 21.6054 63.4738 21.9139C63.4738 22.2126 63.5329 22.4659 63.6543 22.6737C63.7758 22.8815 63.9334 23.0374 64.1303 23.1413C64.3273 23.2452 64.5308 23.3004 64.7442 23.3004C64.9576 23.3004 65.1611 23.2744 65.3581 23.229C65.555 23.1803 65.7815 23.0894 66.0376 22.9595L66.7171 24.6057Z" fill="white"/>
<path d="M67.7448 17.4498C67.4854 17.1933 67.3574 16.8913 67.3574 16.5374C67.3574 16.177 67.4854 15.8652 67.7448 15.6055C68.0041 15.3457 68.3094 15.2158 68.6639 15.2158C69.0283 15.2158 69.3434 15.3457 69.6061 15.6055C69.8687 15.8652 70 16.177 70 16.5374C70 16.8881 69.8687 17.1933 69.6061 17.4498C69.3434 17.7063 69.0283 17.833 68.6639 17.833C68.3094 17.833 68.0041 17.7031 67.7448 17.4498ZM67.4658 25.1064V18.7032H69.8949V25.1064H67.4658Z" fill="white"/>
</svg>
