<svg width="25" height="26" viewBox="0 0 25 26" fill="none" xmlns="http://www.w3.org/2000/svg">
<path d="M24.619 23.6816L18.4552 17.2466C20.0416 15.3526 20.9098 12.9749 20.9098 10.4968C20.9098 4.70985 16.2187 0 10.4549 0C4.69107 0 0 4.70985 0 10.4968C0 16.2837 4.69107 20.9935 10.4549 20.9935C12.6186 20.9935 14.6823 20.3363 16.446 19.095L22.6553 25.5801C22.9144 25.8494 23.2644 26 23.6372 26C23.9917 26 24.3281 25.8631 24.5827 25.6166C25.1236 25.0918 25.1418 24.2247 24.619 23.6816ZM10.4549 2.73828C14.7142 2.73828 18.1825 6.22047 18.1825 10.4968C18.1825 14.773 14.7142 18.2552 10.4549 18.2552C6.19567 18.2552 2.72737 14.773 2.72737 10.4968C2.72737 6.22047 6.19567 2.73828 10.4549 2.73828Z" fill="#ED7180"/>
</svg>
