<svg width="1920" height="65" viewBox="0 0 1920 65" fill="none" xmlns="http://www.w3.org/2000/svg">
<path d="M5.68247e-06 65L0 0.000104907C11.5414 0.000103898 11.5415 6.03835 23.0829 6.03834C34.6243 6.03834 34.6244 0.00010188 46.1658 0.000100871C57.7072 9.98624e-05 57.7072 6.03834 69.2485 6.03834C80.79 6.03834 80.79 9.78444e-05 92.3314 9.68355e-05C103.873 9.58265e-05 103.873 6.03834 115.407 6.03834C126.948 6.03834 126.949 9.38091e-05 138.483 9.28008e-05C150.024 9.17918e-05 150.024 6.03833 161.558 6.03833C173.093 6.03833 173.093 8.97751e-05 184.634 8.87661e-05C196.176 8.77571e-05 196.176 6.03833 207.71 6.03833C219.251 6.03833 219.251 8.57398e-05 230.786 8.47314e-05C242.327 8.37224e-05 242.327 6.03833 253.861 6.03832C265.403 6.03832 265.403 8.17051e-05 276.937 8.06967e-05C288.471 7.96884e-05 288.478 6.03832 300.013 6.03832C311.554 6.03832 311.554 7.76704e-05 323.088 7.66621e-05C334.63 7.56531e-05 334.63 6.03832 346.164 6.03832C357.705 6.03832 357.705 7.36357e-05 369.24 7.26274e-05C380.781 7.16184e-05 380.781 6.03831 392.315 6.03831C403.85 6.03831 403.85 6.96017e-05 415.391 6.85927e-05C426.925 6.75843e-05 426.925 6.03831 438.467 6.03831C450.001 6.03831 450.001 6.5567e-05 461.542 6.4558e-05C473.077 6.35497e-05 473.077 6.0383 484.618 6.0383C496.159 6.0383 496.159 6.15317e-05 507.694 6.05233e-05C519.228 5.9515e-05 519.228 6.0383 530.769 6.0383C542.318 6.0383 542.318 5.74964e-05 553.852 5.6488e-05C565.386 5.54797e-05 565.386 6.0383 576.928 6.0383C588.462 6.03829 588.462 5.34623e-05 600.004 5.24534e-05C611.545 5.14444e-05 611.545 6.03829 623.086 6.03829C634.621 6.03829 634.621 4.9427e-05 646.162 4.8418e-05C657.704 4.74091e-05 657.704 6.03829 669.245 6.03829C680.786 6.03829 680.786 4.53911e-05 692.328 4.43821e-05C703.869 4.33731e-05 703.869 6.03828 715.404 6.03828C726.945 6.03828 726.945 4.13558e-05 738.479 4.03474e-05C750.021 3.93384e-05 750.021 6.03828 761.555 6.03828C773.089 6.03828 773.089 3.73217e-05 784.631 3.63128e-05C796.172 3.53038e-05 796.172 6.03828 807.706 6.03828C819.24 6.03827 819.255 3.32858e-05 830.789 3.22774e-05C842.331 3.12685e-05 842.331 6.03827 853.865 6.03827C865.406 6.03827 865.406 2.92511e-05 876.94 2.82428e-05C888.482 2.72338e-05 888.482 6.03827 900.016 6.03827C911.558 6.03827 911.558 2.52164e-05 923.092 2.42081e-05C934.633 2.31991e-05 934.633 6.03826 946.168 6.03826C957.709 6.03826 957.709 2.11818e-05 969.243 2.01734e-05C980.785 1.91644e-05 980.785 6.03826 992.319 6.03826C1003.85 6.03826 1003.85 1.71477e-05 1015.39 1.61387e-05C1026.93 1.51304e-05 1026.93 6.03826 1038.47 6.03826C1050 6.03825 1050 1.3113e-05 1061.55 1.2104e-05C1073.08 1.10957e-05 1073.08 6.03825 1084.62 6.03825C1096.16 6.03825 1096.16 9.07772e-06 1107.7 8.06936e-06C1119.23 7.061e-06 1119.23 6.03825 1130.77 6.03825C1142.31 6.03825 1142.31 5.04304e-06 1153.86 4.03405e-06C1165.39 3.0257e-06 1165.39 6.03824 1176.92 6.03824C1188.47 6.03824 1188.47 1.00836e-06 1200 0L1200 64.9999L5.68247e-06 65Z" fill="#262037"/>
<path d="M1200 65L1200 0.000104907C1211.54 0.000103898 1211.54 6.03835 1223.08 6.03834C1234.62 6.03834 1234.62 0.00010188 1246.17 0.000100871C1257.71 9.98624e-05 1257.71 6.03834 1269.25 6.03834C1280.79 6.03834 1280.79 9.78444e-05 1292.33 9.68355e-05C1303.87 9.58265e-05 1303.87 6.03834 1315.41 6.03834C1326.95 6.03834 1326.95 9.38091e-05 1338.48 9.28008e-05C1350.02 9.17918e-05 1350.02 6.03833 1361.56 6.03833C1373.09 6.03833 1373.09 8.97751e-05 1384.63 8.87661e-05C1396.18 8.77571e-05 1396.18 6.03833 1407.71 6.03833C1419.25 6.03833 1419.25 8.57398e-05 1430.79 8.47314e-05C1442.33 8.37224e-05 1442.33 6.03833 1453.86 6.03832C1465.4 6.03832 1465.4 8.17051e-05 1476.94 8.06967e-05C1488.47 7.96884e-05 1488.48 6.03832 1500.01 6.03832C1511.55 6.03832 1511.55 7.76704e-05 1523.09 7.66621e-05C1534.63 7.56531e-05 1534.63 6.03832 1546.16 6.03832C1557.71 6.03832 1557.71 7.36357e-05 1569.24 7.26274e-05C1580.78 7.16184e-05 1580.78 6.03831 1592.32 6.03831C1603.85 6.03831 1603.85 6.96017e-05 1615.39 6.85927e-05C1626.93 6.75843e-05 1626.93 6.03831 1638.47 6.03831C1650 6.03831 1650 6.5567e-05 1661.54 6.4558e-05C1673.08 6.35497e-05 1673.08 6.0383 1684.62 6.0383C1696.16 6.0383 1696.16 6.15317e-05 1707.69 6.05233e-05C1719.23 5.9515e-05 1719.23 6.0383 1730.77 6.0383C1742.32 6.0383 1742.32 5.74964e-05 1753.85 5.6488e-05C1765.39 5.54797e-05 1765.39 6.0383 1776.93 6.0383C1788.46 6.03829 1788.46 5.34623e-05 1800 5.24534e-05C1811.55 5.14444e-05 1811.54 6.03829 1823.09 6.03829C1834.62 6.03829 1834.62 4.9427e-05 1846.16 4.8418e-05C1857.7 4.74091e-05 1857.7 6.03829 1869.24 6.03829C1880.79 6.03829 1880.79 4.53911e-05 1892.33 4.43821e-05C1903.87 4.33731e-05 1903.87 6.03828 1915.4 6.03828C1926.94 6.03828 1926.94 4.13558e-05 1938.48 4.03474e-05C1950.02 3.93384e-05 1950.02 6.03828 1961.55 6.03828C1973.09 6.03828 1973.09 3.73217e-05 1984.63 3.63128e-05C1996.17 3.53038e-05 1996.17 6.03828 2007.71 6.03828C2019.24 6.03827 2019.25 3.32858e-05 2030.79 3.22774e-05C2042.33 3.12685e-05 2042.33 6.03827 2053.86 6.03827C2065.41 6.03827 2065.41 2.92511e-05 2076.94 2.82428e-05C2088.48 2.72338e-05 2088.48 6.03827 2100.02 6.03827C2111.56 6.03827 2111.56 2.52164e-05 2123.09 2.42081e-05C2134.63 2.31991e-05 2134.63 6.03826 2146.17 6.03826C2157.71 6.03826 2157.71 2.11818e-05 2169.24 2.01734e-05C2180.78 1.91644e-05 2180.78 6.03826 2192.32 6.03826C2203.85 6.03826 2203.85 1.71477e-05 2215.39 1.61387e-05C2226.93 1.51304e-05 2226.93 6.03826 2238.47 6.03826C2250 6.03825 2250 1.3113e-05 2261.55 1.2104e-05C2273.08 1.10957e-05 2273.08 6.03825 2284.62 6.03825C2296.16 6.03825 2296.16 9.07772e-06 2307.7 8.06936e-06C2319.23 7.061e-06 2319.23 6.03825 2330.77 6.03825C2342.31 6.03825 2342.31 5.04304e-06 2353.86 4.03405e-06C2365.39 3.0257e-06 2365.39 6.03824 2376.92 6.03824C2388.47 6.03824 2388.47 1.00836e-06 2400 0L2400 64.9999L1200 65Z" fill="#262037"/>
</svg>
