<svg width="22" height="26" viewBox="0 0 22 26" fill="none" xmlns="http://www.w3.org/2000/svg">
<path d="M19.1951 4.53156C18.2015 3.0913 16.9168 1.95715 15.4364 1.18433C13.961 0.411504 12.2949 0 10.5435 0C8.79213 0 7.12604 0.411504 5.65065 1.18433C4.17526 1.95715 2.88554 3.0913 1.89191 4.53156C0.642347 6.33816 0 8.45088 0 10.5686C0 11.8081 0.220807 13.0477 0.667439 14.232C0.993631 15.1152 1.51052 15.9683 2.19803 16.7663L9.74561 25.6286C9.94634 25.8645 10.2374 26 10.5435 26C10.8496 26 11.1407 25.8645 11.3414 25.6286L18.884 16.7663C19.5765 15.9633 20.0934 15.1102 20.4146 14.237C20.8612 13.0527 21.082 11.8081 21.082 10.5686C21.0871 8.45088 20.4447 6.33816 19.1951 4.53156ZM18.4574 13.4993C18.2216 14.1417 17.8302 14.779 17.2982 15.3963L17.2932 15.4013L10.5435 23.3302L3.78884 15.4013C3.2569 14.784 2.87049 14.1467 2.62961 13.4993C2.27331 12.5559 2.09766 11.5622 2.09766 10.5736C2.09766 8.87744 2.61455 7.18124 3.61822 5.73094C4.41614 4.57672 5.4449 3.67342 6.6242 3.05115C7.80351 2.43389 9.13839 2.10268 10.5435 2.10268C11.9487 2.10268 13.2835 2.43389 14.4628 3.05115C15.6422 3.6684 16.6709 4.57672 17.4688 5.73094C18.4725 7.18124 18.9894 8.87242 18.9894 10.5736C18.9894 11.5572 18.8137 12.5509 18.4574 13.4993Z" fill="#262037"/>
<path d="M10.5433 5.3291C9.11309 5.3291 7.81836 5.91123 6.87993 6.84966C5.9415 7.78809 5.35938 9.08282 5.35938 10.513C5.35938 11.9433 5.9415 13.238 6.87993 14.1764C7.81836 15.1149 9.11309 15.697 10.5433 15.697C11.9735 15.697 13.2683 15.1149 14.2067 14.1764C15.1451 13.238 15.7273 11.9433 15.7273 10.513C15.7273 9.08282 15.1451 7.78809 14.2067 6.84966C13.2683 5.91123 11.9735 5.3291 10.5433 5.3291ZM8.36536 8.33007C8.92239 7.77303 9.69522 7.42677 10.5433 7.42677C11.3914 7.42677 12.1642 7.77303 12.7213 8.33007C13.2783 8.8871 13.6246 9.65993 13.6246 10.508C13.6246 11.3561 13.2783 12.1289 12.7213 12.686C12.1642 13.243 11.3914 13.5893 10.5433 13.5893C9.69522 13.5893 8.92239 13.243 8.36536 12.686C7.80832 12.1289 7.46206 11.3561 7.46206 10.508C7.46206 9.65993 7.80832 8.89212 8.36536 8.33007Z" fill="#262037"/>
</svg>
