<svg width="1203" height="13" viewBox="0 0 1203 13" fill="none" xmlns="http://www.w3.org/2000/svg">
<path d="M0 10.2236C13.6657 10.2236 13.6657 2.99984 27.3399 2.99984C41.0057 2.99984 41.0057 10.2236 54.6799 10.2236C68.3456 10.2236 68.3456 2.99984 82.0198 2.99984C95.6856 2.99984 95.6855 10.2236 109.36 10.2236C123.034 10.2236 123.034 2.99984 136.7 2.99984C150.365 2.99984 150.365 10.2236 164.04 10.2236C177.705 10.2236 177.705 2.99984 191.38 2.99984C205.045 2.99984 205.045 10.2236 218.72 10.2236C232.385 10.2236 232.385 2.99984 246.059 2.99984C259.734 2.99984 259.734 10.2236 273.399 10.2236C287.074 10.2236 287.074 2.99984 300.739 2.99984C314.414 2.99984 314.414 10.2236 328.079 10.2236C341.754 10.2236 341.754 2.99984 355.419 2.99984C369.093 2.99984 369.093 10.2236 382.759 10.2236C396.433 10.2236 396.433 2.99984 410.099 2.99984C423.773 2.99984 423.773 10.2236 437.439 10.2236C451.113 10.2236 451.113 2.99984 464.779 2.99984C478.453 2.99984 478.453 10.2236 492.119 10.2236C505.785 10.2236 505.785 2.99984 519.459 2.99984C533.133 2.99984 533.133 10.2236 546.799 10.2236C560.473 10.2236 560.473 2.99984 574.139 2.99984C587.813 2.99984 587.813 10.2236 601.487 10.2236C615.161 10.2236 615.161 2.99984 628.836 2.99984C642.51 2.99984 642.51 10.2236 656.184 10.2236C669.858 10.2236 669.858 2.99984 683.533 2.99984C697.207 2.99984 697.207 10.2236 710.881 10.2236" stroke="#ED7080" stroke-width="5" stroke-miterlimit="10"/>
<path d="M710.881 10.2236C724.547 10.2236 724.547 2.99984 738.221 2.99984C751.887 2.99984 751.887 10.2236 765.561 10.2236C779.226 10.2236 779.226 2.99984 792.901 2.99984C806.566 2.99984 806.566 10.2236 820.241 10.2236C833.915 10.2236 833.915 2.99984 847.581 2.99984C861.246 2.99984 861.246 10.2236 874.921 10.2236C888.586 10.2236 888.586 2.99984 902.261 2.99984C915.926 2.99984 915.926 10.2236 929.6 10.2236C943.266 10.2236 943.266 2.99984 956.94 2.99984C970.615 2.99984 970.615 10.2236 984.28 10.2236C997.955 10.2236 997.955 2.99984 1011.62 2.99984C1025.29 2.99984 1025.29 10.2236 1038.96 10.2236C1052.63 10.2236 1052.63 2.99984 1066.3 2.99984C1079.97 2.99984 1079.97 10.2236 1093.64 10.2236C1107.31 10.2236 1107.31 2.99984 1120.98 2.99984C1134.65 2.99984 1134.65 10.2236 1148.32 10.2236C1161.99 10.2236 1161.99 2.99984 1175.66 2.99984C1189.33 2.99984 1189.33 10.2236 1203 10.2236" stroke="#ED7080" stroke-width="5" stroke-miterlimit="10"/>
</svg>
